<svg width="44" height="44" viewBox="0 0 44 44" fill="none" xmlns="http://www.w3.org/2000/svg">
<path d="M35.7502 29.3333H11.9168L7.3335 11H40.3335L35.7502 29.3333Z" fill="#212121"/>
<path d="M2.75 5.5H5.95833L7.33333 11M7.33333 11L11.9167 29.3333H35.75L40.3333 11H7.33333Z" stroke="#212121" stroke-width="2" stroke-linecap="round" stroke-linejoin="round"/>
<path d="M11.9165 38.5C13.4353 38.5 14.6665 37.2688 14.6665 35.75C14.6665 34.2312 13.4353 33 11.9165 33C10.3977 33 9.1665 34.2312 9.1665 35.75C9.1665 37.2688 10.3977 38.5 11.9165 38.5Z" stroke="#212121" stroke-width="2" stroke-linecap="round" stroke-linejoin="round"/>
<path d="M35.75 38.5C37.2688 38.5 38.5 37.2688 38.5 35.75C38.5 34.2312 37.2688 33 35.75 33C34.2312 33 33 34.2312 33 35.75C33 37.2688 34.2312 38.5 35.75 38.5Z" stroke="#212121" stroke-width="2" stroke-linecap="round" stroke-linejoin="round"/>
</svg>
